<svg width="24" height="24" viewBox="0 0 24 24" fill="none" xmlns="http://www.w3.org/2000/svg">
<path d="M4.7952 6.85714C6.4908 6.85714 7.3872 5.57657 8.0412 4.64057C8.6292 3.80057 8.9184 3.42857 9.5916 3.42857C10.2648 3.42857 10.554 3.80057 11.142 4.64057C11.796 5.57657 12.6924 6.85714 14.3892 6.85714C16.0872 6.85714 16.9848 5.57657 17.6412 4.64057C18.2304 3.80057 18.5196 3.42857 19.1952 3.42857C19.8708 3.42857 20.16 3.80057 20.7492 4.64057C21.4044 5.57657 22.302 6.85714 24 6.85714V3.42857C23.3244 3.42857 23.0352 3.05657 22.446 2.21657C21.7908 1.28057 20.8932 0 19.1952 0C17.4972 0 16.6008 1.28057 15.9444 2.21486C15.3552 3.05657 15.0672 3.42857 14.3892 3.42857C13.7148 3.42857 13.4268 3.05657 12.8388 2.21657C12.1848 1.28057 11.2884 0 9.5916 0C7.8948 0 6.9984 1.28057 6.3444 2.21657C5.7564 3.05657 5.4684 3.42857 4.7952 3.42857C4.122 3.42857 3.834 3.05657 3.246 2.21657C2.592 1.28057 1.6956 0 0 0V3.42857C0.6732 3.42857 0.9612 3.80057 1.5492 4.64057C2.2032 5.57657 3.0996 6.85714 4.7952 6.85714ZM4.7952 15.4286C6.4908 15.4286 7.3872 14.148 8.0412 13.212C8.6292 12.372 8.9184 12 9.5916 12C10.2648 12 10.554 12.372 11.142 13.212C11.796 14.148 12.6924 15.4286 14.3892 15.4286C16.0872 15.4286 16.9848 14.148 17.6412 13.212C18.2304 12.372 18.5196 12 19.1952 12C19.8708 12 20.16 12.372 20.7492 13.212C21.4044 14.148 22.302 15.4286 24 15.4286V12C23.3244 12 23.0352 11.628 22.446 10.788C21.7908 9.852 20.8932 8.57143 19.1952 8.57143C17.4972 8.57143 16.6008 9.852 15.9444 10.7863C15.3552 11.628 15.0672 12 14.3892 12C13.7148 12 13.4268 11.628 12.8388 10.788C12.1848 9.852 11.2884 8.57143 9.5916 8.57143C7.8948 8.57143 6.9984 9.852 6.3444 10.788C5.7564 11.628 5.4684 12 4.7952 12C4.122 12 3.834 11.628 3.246 10.788C2.592 9.852 1.6956 8.57143 0 8.57143V12C0.6732 12 0.9612 12.372 1.5492 13.212C2.2032 14.148 3.0996 15.4286 4.7952 15.4286ZM4.7952 24C6.4908 24 7.3872 22.7194 8.0412 21.7834C8.6292 20.9434 8.9184 20.5714 9.5916 20.5714C10.2648 20.5714 10.554 20.9434 11.142 21.7834C11.796 22.7194 12.6924 24 14.3892 24C16.0872 24 16.9848 22.7194 17.6412 21.7834C18.2304 20.9434 18.5196 20.5714 19.1952 20.5714C19.8708 20.5714 20.16 20.9434 20.7492 21.7834C21.4044 22.7194 22.302 24 24 24V20.5714C23.3244 20.5714 23.0352 20.1994 22.446 19.3594C21.7908 18.4234 20.8932 17.1429 19.1952 17.1429C17.4972 17.1429 16.6008 18.4234 15.9444 19.3577C15.3552 20.1994 15.0672 20.5714 14.3892 20.5714C13.7148 20.5714 13.4268 20.1994 12.8388 19.3594C12.1848 18.4234 11.2884 17.1429 9.5916 17.1429C7.8948 17.1429 6.9984 18.4234 6.3444 19.3594C5.7564 20.1994 5.4684 20.5714 4.7952 20.5714C4.122 20.5714 3.834 20.1994 3.246 19.3594C2.592 18.4234 1.6956 17.1429 0 17.1429V20.5714C0.6732 20.5714 0.9612 20.9434 1.5492 21.7834C2.2032 22.7194 3.0996 24 4.7952 24Z" fill="#1D4CC4"/>
</svg>
